<svg width="489.12000732421876" height="226.0071757980873" viewBox="0 0 290 134" class="looka-1j8o68f"><defs id="SvgjsDefs1414"></defs><g id="SvgjsG1415" featurekey="rootContainer" transform="matrix(1,0,0,1,0,0)" fill="#111111"><rect xmlns="http://www.w3.org/2000/svg" width="290" height="134" rx="10" ry="10"></rect></g><g id="SvgjsG1416" featurekey="q4o0QG-0" transform="matrix(6.212723398910289,0,0,6.212723398910289,18.260439477588417,-10.939362645071537)" fill="#f7fbfc"><path d="M3.5 13.3 l1.9 -0.04 l-0.16 -4.78 l-1.8 -0.5 l0 0.88 c-0.08 0.5 -0.12 1.16 -0.14 1.66 l0 1.54 l0 0.8 z M1.16 5.4 l2.52 -0.22 l1.94 0.02 l0.72 0 l0.3 0.94 l0.66 6.46 l0.66 7.48 l-2 -0.06 l-0.3 -0.12 l-0.18 -4.48 l-2.04 0.12 l0.24 4.42 l-0.54 0 l-2.28 0 l-0.58 -0.06 l0.24 -8.96 z M8.88 5.26 l2.56 0.08 l2.16 10.14 l0.18 -1.06 l-0.58 -9.1 l2.22 -0.04 l0.88 0.2 l-0.4 14.4 l-1.78 0.24 l-1.78 -0.1 l-1.18 -8.78 l-0.42 -1.3 l0.06 10.04 l-2.06 0.18 l-0.1 -8.58 z M17.880000000000003 8.88 l3.2 0.08 l-0.16 2.5 l0.24 5.08 l-0.14 3.38 l-0.28 0.04 l-2.8 -0.06 l-0.12 -0.92 l-0.04 -5.36 z M18.000000000000004 4.98 l3.02 0.04 l0.14 0.78 l0 1.34 l-0.08 0.72 l-3.2 0.02 l-0.1 -1.3 l-0.04 -1.4 z M22.44 20 l0.24 -14.5 l2.38 -0.18 l1.08 0.12 l1.02 6.94 l0.6 -7.16 l4.1 0.5 c0.02 0.76 0.04 1.54 0.04 2.36 c0.08 1.38 0.18 3.18 0.18 4.84 c0.06 2.68 -0.02 4.6 0.16 7.12 l-1.76 -0.04 l-0.14 -8.98 l-0.38 -0.08 l-1 7.96 l-0.34 0.98 l-2.12 0.12 l-1.02 -8.4 l-0.6 0.14 l0.22 8.38 z M35.34 13.379999999999999 l2 -0.1 l-0.06 -2.78 l-0.5 -1.94 l-1.24 -0.1 z M35.88 5.199999999999999 l1.28 0 l2.62 0.18 l0.54 7.26 l0.2 7.24 l-0.6 0.04 l-2.26 0.1 l-0.24 0 l-0.18 -4.5 l-1.88 -0.12 l-0.5 4.6 l-1.96 0.06 l0.64 -7.48 l0.58 -4.28 l0.42 -3 z"></path></g></svg>